<svg xmlns="http://www.w3.org/2000/svg" fill="none" viewBox="0 0 1366 1366" height="1366" width="1366">
<g clip-path="url(#clip0_725_37980)">
<path fill="#FEFEFE" d="M0 0H1365.33V1365.33H0V0ZM427.293 349.68C398.693 367.307 375.973 393.08 358.32 421.4C343.813 410.387 324.147 407.36 306.813 412.627C286.84 418.187 271.04 434.907 264.813 454.44C259.533 469.6 260.253 486.453 265.547 501.493C270.333 516.227 280.267 528.52 290.427 539.92C285.867 548.52 282.507 557.68 279.16 566.787C254.48 569.08 231.627 585.693 221.973 608.56C213.827 626.84 213.32 648.48 221.147 666.973C228.733 686.373 245.44 702.067 265.72 707.373C258.453 733.213 247.133 759.2 226.68 777.32C217.933 785.333 205.6 786.92 196.013 793.547C185.733 800.147 178.733 811.693 177.813 823.92C177 834.573 179.587 845.613 185.533 854.533C194.253 867.453 209.52 876.52 225.36 875.773C235.72 875.707 245.867 871.493 253.427 864.453C266.987 863.413 280.413 861.16 293.96 859.947C313.013 858.96 332.333 857.88 350.68 852.2C360.387 849.493 369.547 845.053 379.453 843.067C400.547 838.053 422.373 838.947 443.88 838.987C430.72 875 420.48 912.173 414.347 950.04C412.133 964.8 411.08 980.267 415.267 994.787C416.853 1000.85 421.4 1006.77 428.067 1007.33C439.413 1008.23 450.72 1006.13 462.067 1006.32C469.827 1006.41 477.64 1005.11 485.36 1006.43C491.987 1007.37 498.707 1007.47 505.387 1007.47C517.867 1007.53 530.68 1003.16 539.587 994.213C550.573 983.947 554.613 968.907 559.88 955.333C562.84 957.133 566.027 958.493 569.2 959.88C566.493 972.253 561.427 984.48 562.44 997.373C563.053 1008.67 568.387 1019.87 577.773 1026.43C591.893 1036.67 609.84 1038.99 626.72 1040.8C645.333 1043.55 664.56 1042.75 682.707 1037.59C704.227 1031.96 723.867 1018.23 735.227 998.947C762.333 1004.36 789.947 1006.69 817.547 1007.39C816.16 1017.91 821.88 1029.37 831.867 1033.52C844.96 1038.8 859.187 1040.69 873.24 1040.84C920.08 1041.81 967.693 1041.19 1013.17 1028.61C1042.03 1020.28 1070.55 1008.23 1093.56 988.507C1097.35 985.44 1100.27 981.093 1105.09 979.52C1123.21 972.267 1139 959.333 1149.47 942.827C1159.95 925.933 1166.55 906.987 1171.79 887.907C1191.85 815.12 1193.11 736.613 1171.76 663.96C1164.49 641.04 1155.75 618.44 1144.01 597.4C1119.96 552.96 1084.39 514.84 1041.97 487.4C1028.07 478.853 1014.31 469.947 999.507 463C973.307 450.387 945.76 440.573 917.467 433.867C890.4 427.44 862.587 424.587 834.867 423.173C812.013 414.587 786.893 416.56 763.36 420.96C741.867 424.893 721.293 432.64 701.333 441.347C687.107 405.253 661.267 373.96 628.8 352.773C602.747 335.68 572.28 325.667 541.36 322.52C501.747 318.867 460.973 328.533 427.293 349.68Z"></path>
<path fill="#FEFEFE" d="M514.227 635.8C519.347 635.32 525.893 638.12 526.36 643.88C527.733 649.533 523.133 655.52 517.387 655.747C512.053 656.44 505.853 652.507 505.693 646.8C504.92 641.533 508.72 636.067 514.227 635.8Z"></path>
<path fill="#010101" d="M427.293 349.68C460.973 328.533 501.747 318.867 541.36 322.52C572.28 325.667 602.747 335.68 628.8 352.773C661.267 373.96 687.107 405.253 701.333 441.347C721.293 432.64 741.867 424.893 763.36 420.96C786.893 416.56 812.013 414.587 834.867 423.173C862.587 424.587 890.4 427.44 917.467 433.867C945.76 440.573 973.307 450.387 999.507 463C1014.31 469.947 1028.07 478.853 1041.97 487.4C1084.39 514.84 1119.96 552.96 1144.01 597.4C1155.75 618.44 1164.49 641.04 1171.76 663.96C1193.11 736.613 1191.85 815.12 1171.79 887.907C1166.55 906.987 1159.95 925.933 1149.47 942.827C1139 959.333 1123.21 972.267 1105.09 979.52C1100.27 981.093 1097.35 985.44 1093.56 988.507C1070.55 1008.23 1042.03 1020.28 1013.17 1028.61C967.693 1041.19 920.08 1041.81 873.24 1040.84C859.187 1040.69 844.96 1038.8 831.867 1033.52C821.88 1029.37 816.16 1017.91 817.547 1007.39C789.947 1006.69 762.333 1004.36 735.227 998.947C723.867 1018.23 704.227 1031.96 682.707 1037.59C664.56 1042.75 645.333 1043.55 626.72 1040.8C609.84 1038.99 591.893 1036.67 577.773 1026.43C568.387 1019.87 563.053 1008.67 562.44 997.373C561.427 984.48 566.493 972.253 569.2 959.88C566.027 958.493 562.84 957.133 559.88 955.333C554.613 968.907 550.573 983.947 539.587 994.213C530.68 1003.16 517.867 1007.53 505.387 1007.47C498.707 1007.47 491.987 1007.37 485.36 1006.43C477.64 1005.11 469.827 1006.41 462.067 1006.32C450.72 1006.13 439.413 1008.23 428.067 1007.33C421.4 1006.77 416.853 1000.85 415.267 994.787C411.08 980.267 412.133 964.8 414.347 950.04C420.48 912.173 430.72 875 443.88 838.987C422.373 838.947 400.547 838.053 379.453 843.067C369.547 845.053 360.387 849.493 350.68 852.2C332.333 857.88 313.013 858.96 293.96 859.947C280.413 861.16 266.987 863.413 253.427 864.453C245.867 871.493 235.72 875.707 225.36 875.773C209.52 876.52 194.253 867.453 185.533 854.533C179.587 845.613 177 834.573 177.813 823.92C178.733 811.693 185.733 800.147 196.013 793.547C205.6 786.92 217.933 785.333 226.68 777.32C247.133 759.2 258.453 733.213 265.72 707.373C245.44 702.067 228.733 686.373 221.147 666.973C213.32 648.48 213.827 626.84 221.973 608.56C231.627 585.693 254.48 569.08 279.16 566.787C282.507 557.68 285.867 548.52 290.427 539.92C280.267 528.52 270.333 516.227 265.547 501.493C260.253 486.453 259.533 469.6 264.813 454.44C271.04 434.907 286.84 418.187 306.813 412.627C324.147 407.36 343.813 410.387 358.32 421.4C375.973 393.08 398.693 367.307 427.293 349.68ZM505.867 341.613C488.147 343.293 470.867 348.653 454.6 355.787C428.493 367.573 407.12 387.587 389.24 409.6C396.213 407.653 403.347 406.413 410.507 405.333L410.613 405.067C422.573 403.4 434.52 401.52 446.627 401.213C500.707 399.653 554.587 412.72 603.453 435.52C630.347 448.027 656.027 463.427 678.493 482.88C684.813 488.347 690.427 494.56 696.507 500.28C696.933 498.667 697.04 497.053 696.84 495.44C693.947 478.787 690.6 462.093 684.107 446.427C676.387 425.827 663.773 407.293 648.467 391.587C644.413 387.493 639.72 384.107 635.693 379.987C638.72 385.107 640.88 390.653 642.667 396.32L643.04 396.547C647.027 410.04 648.387 424.187 646.947 438.187C646.667 438.787 646.093 439.96 645.813 440.56C644.933 426.32 642.733 412.04 637.573 398.68C632.573 385.467 625.6 371.853 613.147 364.253C599.107 355.213 582.92 350.453 567.253 345.12C567.947 346.6 568.68 348.093 569.413 349.587L569.693 349.653C578.707 369.693 577.467 393.12 570.08 413.44C573.2 389.987 573.84 363.547 558.747 343.76C551.267 342.027 543.36 341.187 535.853 343.24C513.787 348.787 495.293 363.587 480.773 380.627C476.987 384.72 474.347 389.707 470.6 393.84C480.747 369.693 500.68 349.333 525.173 339.693C518.72 339.92 512.16 340.147 505.867 341.613ZM448.4 416.347C440.467 424.6 435.787 435.533 434.253 446.813C432.107 435.467 436.973 424.307 441.547 414.16C429.64 415.093 417.613 415.773 405.947 418.413C397.453 424.693 392.8 434.533 388.933 444.067C389.333 435.813 391.493 427.573 395.573 420.36C389.133 422.253 381.893 422.907 376.427 427.093C370.293 434.427 365.96 443.093 362.04 451.76C358.827 459.213 355.987 467.133 356.64 475.4C389.52 461.24 425.72 456.707 461.24 455.773C508.227 456.787 554.947 467.6 597.787 486.88C619.573 497.56 641.653 508.373 660.36 524.093C667.36 517.013 675.493 511.187 684.147 506.307C676.267 497.64 666.867 490.587 658.08 482.907C656.68 491.16 654.947 500.32 647.693 505.573C649.227 503.253 650.68 500.88 651.973 498.427C653 492.827 653.293 487.053 651.893 481.48C652.187 478.973 649.867 477.307 648.067 476.04C640.64 470.88 632.853 466.267 625.253 461.387C613.44 453.893 600.347 448.787 587.76 442.813C587.427 452.333 586.36 462.76 579.84 470.267C584.347 460.987 583.827 450.093 581.227 440.373C579.267 439.027 576.96 438.347 574.773 437.52C556.48 430.947 537.907 424.973 518.84 421.067C517.2 420.747 515.52 420.413 513.853 420.547C506.573 427.08 503.76 436.707 500.773 445.613C499.467 436.107 502.893 426.747 507.4 418.533C489.52 415.347 471.413 413.36 453.24 413.773C451.253 413.667 449.747 415.12 448.4 416.347ZM293.013 442.373C282.213 454.053 278.627 471.067 281 486.493C283.867 501.947 293.013 515.653 304.68 525.947C306.36 523.267 308.133 520.653 309.987 518.107C319.213 505.333 330.12 493.64 343.28 484.84C340.587 470.453 345.04 455.68 351.653 442.96C351.427 441.227 350.64 439.827 349.293 438.76C340.173 430.227 326.573 426.68 314.493 430C306.427 432.107 298.693 436.173 293.013 442.373ZM734.653 447.947C724.4 451.627 714.293 455.893 704.773 461.213C707.907 472.56 710.627 484.067 711.893 495.773C733.747 492.24 758.64 498.2 773.173 515.787C777.307 521.933 780.867 528.573 782.507 535.853C786.24 552.307 782.333 569.827 773.533 584.04C763 602.013 745.613 615.76 725.773 622.067C716.293 625.187 706.2 625.547 696.293 625.693C699.973 642.2 700 659.373 698.147 676.133C695.36 700.92 685.787 724.667 671.933 745.307C669.373 749.347 665.893 752.76 663.547 756.92C666.96 776.8 673.76 795.947 681.36 814.587C690.547 835.627 702.36 855.707 717.8 872.813C733.56 891.773 754.213 905.867 775.467 918C798.96 930.387 824.267 939.933 850.653 943.693C855.96 944.613 861.4 945.133 866.48 947.08C882.84 933.76 902.453 924.267 923.173 920.173C929.92 896.213 935.52 871.907 939.587 847.347C942.267 831.147 944.253 814.827 945.787 798.48C951.307 737.267 950.893 675 938.227 614.653C932.36 586.587 925.053 558.44 912.32 532.64V532.28C901.72 508.32 887.6 485.6 869.16 466.867C861.267 459.627 853.867 451.613 844.4 446.387C831.52 438.48 816.227 435.667 801.307 435.28C778.533 434.96 755.893 439.947 734.653 447.947ZM864.08 443.413C898.907 472.84 922.347 513.747 936.56 556.653C948.307 590.467 955.28 625.8 959.08 661.347C965.427 722.16 962.88 783.773 953.533 844.147C949.333 869.347 944.653 894.613 936.533 918.88C945.693 918.947 954.933 918.853 963.907 920.947C977.653 923.44 990.187 929.867 1002.72 935.733C1015.89 941.667 1029.01 947.907 1043.01 951.693C1061.49 956.88 1080.81 962.293 1100.15 958.707C1110.29 957 1119.03 950.76 1125.85 943.307C1136.61 931.467 1142.83 916.44 1148.41 901.68C1153.68 887.227 1157.41 872.24 1160.55 857.2C1164.03 837.653 1167.33 817.947 1168.07 798.107C1169.35 780.733 1169.27 763.213 1167.93 745.853C1164.69 698.373 1152.13 651.227 1129.77 609.133C1130.68 618.6 1132.8 627.907 1133.61 637.4C1140 700.507 1131.37 764.4 1113.97 825.16C1103.47 860.28 1089.69 894.52 1072.11 926.707C1070.07 930.493 1066.48 935.947 1061.47 933.48C1057.52 932.427 1056.91 927.28 1059 924.293C1089.23 866.907 1110.19 804.373 1118.48 739.947C1124.41 689.493 1124.44 637.6 1111.47 588.187C1110.25 583.72 1109.91 578.96 1108.07 574.693C1102.91 567.613 1096.95 561.187 1091.55 554.307L1090.31 554.347C1090.71 552.413 1090 551.613 1088.16 551.96L1088.24 550.947C1075.52 537.613 1062.09 524.933 1047.51 513.64C1036.44 504.92 1024.28 497.747 1012 490.907C1027.11 518.8 1037.28 549.187 1044.32 580.067C1057.91 640.84 1055.47 703.96 1046.2 765.173C1039.43 811.04 1029.37 856.613 1013.2 900.147C1011.68 904.08 1010.53 908.76 1006.51 910.92C1004.51 911.28 1002.6 910.36 1000.71 909.987C999.813 907.707 998.333 905.32 999.267 902.813C1006.97 879.4 1014.76 855.827 1019.6 831.667C1024.56 814.707 1027.37 797.213 1030.8 779.907C1039.83 720.96 1045.27 660.413 1034.81 601.28C1028.83 566.653 1018.71 532.533 1002.71 501.16C998.493 493.613 995.08 485.293 989.36 478.813C973.453 471.627 957.493 464.12 940.64 459.413C920.867 452.587 900.213 448.613 879.64 445.013C874.44 444.56 869.213 444.387 864.08 443.413ZM387.733 478.733L387.653 479C379.36 481.387 371.08 483.987 363.16 487.4C330.04 507.493 307.067 541.267 295.2 577.707C302.213 579.333 308.467 582.933 314.627 586.493L312.947 586.133C331.187 597.173 342.547 618.72 341.067 640.053C340.893 651.213 337.147 661.907 331.64 671.52L331.387 671.587C323.813 683.453 311.893 692.44 298.253 696.093V696.267C294.56 697.227 290.8 698.027 286.973 698.133C285.533 706.893 282.96 715.4 280.147 723.8C272.24 746.453 261.813 768.907 245.053 786.427C240 791.427 234.853 796.707 228.08 799.307C235.107 799.973 241.507 802.973 247.733 806.08V806.333C254.027 809.6 258.573 815.507 260.827 822.173C261.173 826.293 261.813 830.747 259.96 834.627C257.893 839.04 253.933 842.08 250.307 845.173C270.987 843.587 291.2 838.16 310.533 830.813C336.533 820.387 361.6 807.32 384.12 790.587C399.6 779.627 414.187 767.427 428.093 754.547C422.733 750.64 416.427 748.08 409.84 747.227C406.227 746.64 404.2 741.787 406.547 738.907C409.413 736.16 413.733 736.573 417.347 737.093C424.653 738.427 431.587 741.893 437.053 746.92C443.907 753.52 443.933 764.613 439.693 772.64C438.213 775.533 435.72 778.96 431.96 777.933C427.093 777.027 428.933 771.24 429.04 767.813C427.787 770.013 426.453 772.213 424.533 773.907C410.52 786.867 395.573 798.853 379.627 809.36C361.24 821.227 341.707 831.373 321.427 839.6C328.68 837.813 336.147 837.04 343.333 834.947C355.84 831.6 367.827 826.52 380.467 823.667C407.72 818.507 435.627 820.72 463.16 818.8C465 818.947 466.867 818.76 468.72 818.667L469.2 818.32C475.333 818.227 481.48 817.987 487.587 817.32C503.867 816.507 520.24 814.88 536.173 811.253C548.893 809.24 561.253 805.387 573.413 801.24C609.947 788.187 643.853 764.64 664.373 731.213C675.68 713 682.867 692.2 684.813 670.827C686.227 656.387 686.453 641.4 682.107 627.413C682.2 627.067 682.387 626.36 682.48 626.013C679.68 625.933 676.88 625.613 674.293 624.547C673.307 621.6 672.693 618.48 673.933 615.507C685.627 608.68 699.453 613.24 712.093 610.547C735.32 606.84 755.56 590.32 765.053 568.987C771.147 556.467 771.44 541.053 764.747 528.707C763 525.947 761.48 522.253 758.413 520.867C747.747 510.467 731.64 507.64 717.307 509.387C693.093 512.453 672.427 528.587 658.96 548.293C652.84 557 648.72 566.853 644.147 576.413C641.32 576.613 637.533 576.413 636.413 573.267C635.88 570.56 636.547 567.787 636.32 565.067C639.6 554.653 644.693 545.013 650.72 535.96C640.187 526.2 628.427 517.52 615.547 511.093C613.893 509.507 611.653 508.707 609.68 507.64C585.44 496.267 560.56 485.947 534.533 479.453C516.04 475.253 497.28 471.48 478.293 470.84C475.44 470.4 472.573 470.053 469.693 470.227C442.147 468.907 414.467 472.147 387.733 478.733ZM275.413 586.373C262.827 589.467 251.08 596.813 243.653 607.56C235.427 619.707 232.107 635.147 234.973 649.56C238.987 669.907 255.973 688.493 277.373 689.96C296.92 691.253 316.467 680.28 325.92 663.227C331.6 652.12 334.36 639.027 331.267 626.747C328.293 611.733 318.227 598.453 304.787 591.2C296.04 585.987 285.36 584.24 275.413 586.373ZM612.613 797.827C596.613 807.6 579.04 814.48 561.04 819.547C528.893 828.733 495.347 832.04 462.013 832.267C469.533 843.173 476.333 854.613 484.867 864.787C491.267 872.667 498.24 880.053 505.12 887.507V887.08C509.173 892.227 514.507 896.16 519.347 900.547C537.627 916.56 557.68 930.88 579.92 940.853C587.333 913.68 595.227 886.52 599.36 858.6C599.8 858.053 600.693 856.933 601.133 856.373C604.027 862.453 605.293 869.24 604.707 875.96C603.48 897.213 598.813 918.067 594.12 938.773C591.72 950.853 587.933 962.6 584.4 974.373C589.64 971.987 595.627 972.92 600.373 975.973C602.92 978.827 605.653 981.56 607.773 984.787C613.067 981.493 619.093 978.613 625.507 979.227C630.987 979.707 635.72 983.027 639.28 987.053C646.893 981.253 658.467 981.213 665.747 987.587C672.813 993.6 675.707 1003.19 675.72 1012.21C675.627 1014.75 675.52 1017.28 675.427 1019.85C691.12 1015.11 706.88 1007.65 716.693 993.987C726.253 981.867 733.387 968.027 739.213 953.787C741.24 949.48 742.667 944.427 746.707 941.533C750.08 940.427 754.147 942.853 753.093 946.72C750.453 958.4 745.653 969.493 741.627 980.76C747.253 981.947 752.933 982.853 758.627 983.64C781.853 987.64 805.493 987.893 828.987 988.84C832.293 984.333 835.76 979.96 839.253 975.613C844.733 969.84 849.92 963.8 855.507 958.133C830.48 955.307 806.28 947.653 783.32 937.48L783.24 937.24C761.733 927.44 741.84 914.2 724.267 898.427C707.733 883.547 694.24 865.64 682.48 846.84C668.587 822.267 658.08 795.693 652.347 768.013C640.813 780.027 627.067 789.68 612.613 797.827ZM198.72 819.493L198.68 818.507C196.053 824.48 196.4 831.147 198.307 837.253C201.653 846.107 209.04 854.067 218.627 855.827C225.853 857.467 234.533 856.067 239.493 850.133C242.333 847.32 243.347 843.347 245.187 839.92C247.133 836.467 251.12 834.56 252.653 830.84C253.52 825.493 250.307 820.707 246.973 816.893C239.467 810.76 230.107 807.267 220.467 806.613C211.307 804.72 201.44 810.613 198.72 819.493ZM457.48 853.547C456 858.133 454.293 862.64 452.893 867.267C444.827 895.32 436.893 923.533 432.733 952.48C437.68 950.267 443.147 951.173 448.107 952.787L448.04 952.987C452.787 955.667 456.48 959.893 458.427 964.987C465.827 964.067 473.08 966.6 478.867 971.147C482.627 975.667 484.76 981.307 485.027 987.187C493.52 987.947 502.133 989.32 510.653 987.987C517.547 986.88 524.28 983.613 528.56 977.96C537.013 967.093 540.867 953.64 546.32 941.213C538.227 935.133 529.933 929.24 521.733 923.267C502.52 907.493 485.613 889.147 469.893 869.947C465.693 864.52 461.573 859.04 457.48 853.547ZM892.627 945.68C875.773 954.813 862.533 969.067 851.053 984.16C853 985.4 854.88 986.853 855.92 989.013C862.707 981.187 871.747 973.48 882.773 973.973C892.693 975.227 899.893 982.947 903.88 991.64C909.4 988.093 915.933 985.253 922.627 986.453C928.813 987.267 934.027 991.027 938.52 995.133C945.4 1002.24 950.12 1011.15 952.693 1020.68C968.4 1018.68 984.173 1016.71 999.547 1012.75C1029.25 1005.29 1059 994.133 1082.47 973.893C1052.32 970.787 1023.52 960.173 996.373 947.12C983.707 941.307 970.8 935.107 956.813 933.453C934.867 929.92 911.773 934.4 892.627 945.68ZM432.533 966.907C431.44 974 432.12 981.173 432.893 988.267C433.827 988.293 435.68 988.32 436.613 988.333C439.2 988.12 441.787 987.853 444.387 987.6C446.747 980.307 447.987 971.547 443.307 964.893C439.52 963.52 435.493 964.12 432.533 966.907ZM457.227 987.267C462.013 987.147 466.813 987.133 471.613 987.027C471.84 980.84 465.667 977.24 460.027 978.173C459.347 981.267 458.373 984.293 457.227 987.267ZM581.973 989.667C580.28 994.24 581.52 999.373 582.867 1003.91C584.72 1009.77 590.267 1013.07 595.507 1015.55C594.773 1010.49 593.867 1005.27 595.227 1000.24C595.707 996.92 598.12 992.947 595.16 990.133C592.267 985.507 585.56 986.52 581.973 989.667ZM871.4 991.253C862.96 998.707 856.28 1009.96 859 1021.59C863.707 1021.76 868.413 1022.29 873.147 1022.31C878.8 1022.91 884.493 1022.83 890.173 1022.75C889.853 1016.64 890.573 1010.52 892.627 1004.76C894.493 999.8 890.773 995.307 888.613 991.16C883.907 986.427 876.227 987.053 871.4 991.253ZM609.72 1001.84C606.24 1006.91 608 1013.19 608.48 1018.84C612.693 1019.73 616.947 1020.45 621.227 1020.96C622.8 1021.23 624.36 1021.51 625.947 1021.8C625.8 1014.76 626.2 1007.69 627.787 1000.83C625.587 1000.4 624.933 996.267 628.52 1000.35C628.24 998.867 627.653 995.893 627.373 994.4C620.773 991.253 613.293 996.293 609.72 1001.84ZM641.293 1003.72C638.24 1009.67 639.267 1016.61 639.467 1023.05C644.053 1023.23 648.653 1023.15 653.253 1023.12C655.733 1022.75 658.24 1022.4 660.733 1022.08C662.8 1014.41 662.267 1005.96 657.693 999.28C652.44 994.573 644.147 997.947 641.293 1003.72ZM838.173 1002.47C837.12 1006.04 836.213 1009.77 836.933 1013.52C838.28 1017.44 843.04 1017.92 846.24 1019.63C845.453 1012.49 845.613 1005.32 846.28 998.2C845.427 997.747 843.707 996.853 842.853 996.413C841.16 998.32 839.48 1000.27 838.173 1002.47ZM908.293 1005.72C904.333 1010.21 903.813 1016.47 903.493 1022.19C915.133 1022.59 926.787 1022.03 938.427 1021.65C935.773 1013.73 931.4 1005.69 924.08 1001.25C918.6 998.027 911.853 1001.11 908.293 1005.72Z"></path>
<path fill="#010101" d="M508.747 570.373C522.507 567.64 537.28 568.8 549.92 575.147C565.013 582.04 577 595.213 582.533 610.853C589.4 629.173 587.147 650.627 576.347 666.987C567.373 680.867 552.667 690.64 536.613 694.307C516.52 699.507 493.427 694.8 478.293 680.187C464.747 667.733 456.613 649.2 457.827 630.72C458.653 602.2 480.587 575.72 508.747 570.373ZM535.387 588.987C527.28 591.56 520.933 599.347 520.867 607.987C520.24 621.107 533.8 632.813 546.72 629.707C555.8 628.027 562.733 619.76 563.307 610.627C564.667 596.467 548.933 583.787 535.387 588.987ZM514.227 635.8C508.72 636.067 504.92 641.533 505.693 646.8C505.853 652.507 512.053 656.44 517.387 655.747C523.133 655.52 527.733 649.533 526.36 643.88C525.893 638.12 519.347 635.32 514.227 635.8Z"></path>
<path fill="#010101" d="M277.853 606.147C286.387 603.747 295.827 604.173 303.893 607.973C316.293 613.387 324.347 626.667 324.667 640.027C324.627 656.947 311.507 672.773 294.787 675.693C273.96 680.04 252.493 661.067 253.547 639.96C253.2 624.973 263.44 610.44 277.853 606.147ZM298.907 616.227C291.6 618.907 289.747 629.867 295.933 634.64C301.667 639.333 311.24 636.347 313.24 629.187C316.547 621.093 306.44 612.8 298.907 616.227ZM281.827 643.187C279.667 645.533 281.213 648.427 282.28 650.867C283.053 651.267 284.6 652.067 285.373 652.467C288.733 651.773 292.787 649.253 291.573 645.213C291.107 640.613 283.947 638.667 281.827 643.187Z"></path>
<path fill="#83B7C2" d="M505.867 341.613C512.16 340.147 518.72 339.92 525.173 339.693C500.68 349.333 480.747 369.693 470.6 393.84C474.347 389.707 476.987 384.72 480.773 380.627C495.293 363.587 513.787 348.787 535.853 343.24C543.36 341.187 551.267 342.027 558.747 343.76C573.84 363.547 573.2 389.987 570.08 413.44C577.467 393.12 578.707 369.693 569.693 349.653C576.52 351 582.013 355.52 588.067 358.64C596.893 363.587 605.067 370.04 611.36 378.013C620.4 390.867 620.2 408.72 612.987 422.347C610.64 427.373 604.973 430.027 603.453 435.52C554.587 412.72 500.707 399.653 446.627 401.213C434.52 401.52 422.573 403.4 410.613 405.067C411.707 402.347 412.88 399.6 414.907 397.44C428.84 382.307 444.347 368.413 462.173 358.013C475.453 349.507 491.16 346.6 505.867 341.613Z"></path>
<path fill="#A4D0D7" d="M454.6 355.787C470.867 348.653 488.147 343.293 505.867 341.613C491.16 346.6 475.453 349.507 462.173 358.013C444.347 368.413 428.84 382.307 414.907 397.44C412.88 399.6 411.707 402.347 410.613 405.067L410.507 405.333C403.347 406.413 396.213 407.653 389.24 409.6C407.12 387.587 428.493 367.573 454.6 355.787Z"></path>
<path fill="#6B9CA4" d="M567.253 345.12C582.92 350.453 599.107 355.213 613.147 364.253C625.6 371.853 632.573 385.467 637.573 398.68C642.733 412.04 644.933 426.32 645.813 440.56C646.093 439.96 646.667 438.787 646.947 438.187C651.533 438.28 656.6 435.72 657.12 430.707C658.453 418.213 654.4 403.347 643.04 396.547L642.667 396.32C640.88 390.653 638.72 385.107 635.693 379.987C639.72 384.107 644.413 387.493 648.467 391.587C663.773 407.293 676.387 425.827 684.107 446.427C690.6 462.093 693.947 478.787 696.84 495.44C697.04 497.053 696.933 498.667 696.507 500.28C690.427 494.56 684.813 488.347 678.493 482.88C656.027 463.427 630.347 448.027 603.453 435.52C604.973 430.027 610.64 427.373 612.987 422.347C620.2 408.72 620.4 390.867 611.36 378.013C605.067 370.04 596.893 363.587 588.067 358.64C582.013 355.52 576.52 351 569.693 349.653L569.413 349.587C568.68 348.093 567.947 346.6 567.253 345.12Z"></path>
<path fill="#75AAB9" d="M643.04 396.547C654.4 403.347 658.453 418.213 657.12 430.707C656.6 435.72 651.533 438.28 646.947 438.187C648.387 424.187 647.027 410.04 643.04 396.547Z"></path>
<path fill="#85B8C2" d="M448.4 416.347C449.747 415.12 451.253 413.667 453.24 413.773C471.413 413.36 489.52 415.347 507.4 418.533C502.893 426.747 499.467 436.107 500.773 445.613C503.76 436.707 506.573 427.08 513.853 420.547C515.52 420.413 517.2 420.747 518.84 421.067C537.907 424.973 556.48 430.947 574.773 437.52C576.96 438.347 579.267 439.027 581.227 440.373C583.827 450.093 584.347 460.987 579.84 470.267C586.36 462.76 587.427 452.333 587.76 442.813C600.347 448.787 613.44 453.893 625.253 461.387C622.853 465.467 620.587 469.72 617.147 473.04C611.453 478.653 604.36 482.453 597.787 486.88C554.947 467.6 508.227 456.787 461.24 455.773C425.72 456.707 389.52 461.24 356.64 475.4C355.987 467.133 358.827 459.213 362.04 451.76C365.96 443.093 370.293 434.427 376.427 427.093C381.893 422.907 389.133 422.253 395.573 420.36C391.493 427.573 389.333 435.813 388.933 444.067C392.8 434.533 397.453 424.693 405.947 418.413C417.613 415.773 429.64 415.093 441.547 414.16C436.973 424.307 432.107 435.467 434.253 446.813C435.787 435.533 440.467 424.6 448.4 416.347Z"></path>
<path fill="#EEA29E" d="M293.013 442.373C298.693 436.173 306.427 432.107 314.493 430C326.573 426.68 340.173 430.227 349.293 438.76C350.64 439.827 351.427 441.227 351.653 442.96C339.693 440.747 326.587 440.147 315.533 446.053C305.96 451.12 300.44 461.56 298.8 471.96C296.92 485.6 300.28 499.347 305.32 511.973C306.227 514.44 308.16 516.28 309.987 518.107C308.133 520.653 306.36 523.267 304.68 525.947C293.013 515.653 283.867 501.947 281 486.493C278.627 471.067 282.213 454.053 293.013 442.373Z"></path>
<path fill="#FDEEDD" d="M734.653 447.947C755.893 439.947 778.533 434.96 801.307 435.28C816.227 435.667 831.52 438.48 844.4 446.387C853.867 451.613 861.267 459.627 869.16 466.867C887.6 485.6 901.72 508.32 912.32 532.28V532.64C912.013 540.853 916.613 548.28 917.187 556.44C914.627 557.493 912.12 558.893 909.347 559.24C883.413 560.413 856.893 556.533 833.36 545.213C821.24 539.12 809.04 532.787 798.813 523.733C787.653 515.04 777.547 505.067 768.76 493.987C758.96 483.693 751.773 471.36 744.6 459.187C742.627 455.84 741.347 452.16 740.16 448.493C738.32 448.293 736.48 448.08 734.653 447.947Z"></path>
<path fill="#CD7F7E" d="M315.533 446.053C326.587 440.147 339.693 440.747 351.653 442.96C345.04 455.68 340.587 470.453 343.28 484.84C330.12 493.64 319.213 505.333 309.987 518.107C308.16 516.28 306.227 514.44 305.32 511.973C300.28 499.347 296.92 485.6 298.8 471.96C300.44 461.56 305.96 451.12 315.533 446.053Z"></path>
<path fill="#F2D38B" d="M864.08 443.413C869.213 444.387 874.44 444.56 879.64 445.013C883.053 449.4 886.333 453.893 890.08 458.013C895.467 463.827 899.307 470.84 904.52 476.813C911.64 485.08 916.747 494.773 922.84 503.787C941.84 533.013 954.453 565.8 965 598.853C968.187 610.893 971.733 622.827 974.147 635.053C977.573 648.067 977.6 661.72 981.2 674.693C981.853 677.867 984.76 680.627 988 680.853C991.533 679.467 993.12 675.733 994.173 672.373C997.2 662.307 997.813 651.787 999.2 641.44C1001.29 627.293 1000.63 612.947 1000.8 598.693C1001.01 583.053 998.907 567.507 996.573 552.067C993.307 536.48 988.12 521.267 980.8 507.107C974.36 495.333 965.88 484.853 957.32 474.587C952.453 468.8 946.32 464.32 940.64 459.413C957.493 464.12 973.453 471.627 989.36 478.813C995.08 485.293 998.493 493.613 1002.71 501.16C1018.71 532.533 1028.83 566.653 1034.81 601.28C1045.27 660.413 1039.83 720.96 1030.8 779.907C1027.37 797.213 1024.56 814.707 1019.6 831.667C1018.65 825.813 1020.72 820.133 1020.89 814.32C1000.41 828.187 976.947 836.68 953.533 844.147C962.88 783.773 965.427 722.16 959.08 661.347C955.28 625.8 948.307 590.467 936.56 556.653C922.347 513.747 898.907 472.84 864.08 443.413Z"></path>
<path fill="#FDEEDB" d="M879.64 445.013C900.213 448.613 920.867 452.587 940.64 459.413C946.32 464.32 952.453 468.8 957.32 474.587C965.88 484.853 974.36 495.333 980.8 507.107C988.12 521.267 993.307 536.48 996.573 552.067C998.907 567.507 1001.01 583.053 1000.8 598.693C1000.63 612.947 1001.29 627.293 999.2 641.44C997.813 651.787 997.2 662.307 994.173 672.373C993.12 675.733 991.533 679.467 988 680.853C984.76 680.627 981.853 677.867 981.2 674.693C977.6 661.72 977.573 648.067 974.147 635.053C971.733 622.827 968.187 610.893 965 598.853C954.453 565.8 941.84 533.013 922.84 503.787C916.747 494.773 911.64 485.08 904.52 476.813C899.307 470.84 895.467 463.827 890.08 458.013C886.333 453.893 883.053 449.4 879.64 445.013Z"></path>
<path fill="#F4D38E" d="M704.773 461.213C714.293 455.893 724.4 451.627 734.653 447.947C736.48 448.08 738.32 448.293 740.16 448.493C741.347 452.16 742.627 455.84 744.6 459.187C751.773 471.36 758.96 483.693 768.76 493.987C777.547 505.067 787.653 515.04 798.813 523.733C809.04 532.787 821.24 539.12 833.36 545.213C856.893 556.533 883.413 560.413 909.347 559.24C912.12 558.893 914.627 557.493 917.187 556.44C916.613 548.28 912.013 540.853 912.32 532.64C925.053 558.44 932.36 586.587 938.227 614.653C950.893 675 951.307 737.267 945.787 798.48C944.253 814.827 942.267 831.147 939.587 847.347C931.64 847.64 923.933 849.813 916.013 850.32C888.2 852.347 859.693 850.6 833.133 841.56C826.907 839.533 820.587 837.653 814.707 834.733C803.613 829.16 792.147 824.08 782.267 816.453C763.173 802.987 745.853 786.627 733.027 766.987C721.013 749.12 712.24 728.507 710.973 706.813C709.44 682.747 716.213 659.173 725.027 637.04C737.08 634.467 747.867 628.293 758.627 622.533C768.133 617.4 776.427 610.2 783.147 601.773C790.8 592.387 797.56 581.587 799.12 569.347C800.4 559.467 800.16 549.053 796.24 539.733C792.16 529.733 785.92 520.12 776.28 514.733C775.493 515 773.947 515.52 773.173 515.787C758.64 498.2 733.747 492.24 711.893 495.773C710.627 484.067 707.907 472.56 704.773 461.213Z"></path>
<path fill="#6EA0A6" d="M625.253 461.387C632.853 466.267 640.64 470.88 648.067 476.04C649.867 477.307 652.187 478.973 651.893 481.48C649.92 487 649.92 492.933 651.973 498.427C650.68 500.88 649.227 503.253 647.693 505.573C654.947 500.32 656.68 491.16 658.08 482.907C666.867 490.587 676.267 497.64 684.147 506.307C675.493 511.187 667.36 517.013 660.36 524.093C641.653 508.373 619.573 497.56 597.787 486.88C604.36 482.453 611.453 478.653 617.147 473.04C620.587 469.72 622.853 465.467 625.253 461.387Z"></path>
<path fill="#EEA1A1" d="M387.733 478.733C414.467 472.147 442.147 468.907 469.693 470.227C460.573 471.48 451.347 470.293 442.24 471.64C446.773 472.173 451.347 472.333 455.907 472.187C463.373 471.84 471.013 473.107 478.293 470.84C497.28 471.48 516.04 475.253 534.533 479.453C560.56 485.947 585.44 496.267 609.68 507.64C611.653 508.707 613.893 509.507 615.547 511.093C621.467 523.667 628.707 535.76 631.933 549.427C633.147 554.707 633.947 560.12 636.32 565.067C636.547 567.787 635.88 570.56 636.413 573.267C637.533 576.413 641.32 576.613 644.147 576.413C643.64 577.533 643.16 578.667 642.68 579.813C645.547 579.573 648.8 579.947 651.12 577.84C658.84 571.813 664.533 563.68 671.56 556.907C680.293 547.653 689.92 539.227 700.76 532.507C713.933 523.093 730.36 518.027 746.573 519.64C750.507 520.133 754.44 520.627 758.413 520.867C761.48 522.253 763 525.947 764.747 528.707C771.44 541.053 771.147 556.467 765.053 568.987C755.56 590.32 735.32 606.84 712.093 610.547C699.453 613.24 685.627 608.68 673.933 615.507C672.693 618.48 673.307 621.6 674.293 624.547C676.88 625.613 679.68 625.933 682.48 626.013C682.387 626.36 682.2 627.067 682.107 627.413C680.227 633.72 680.067 640.333 679.187 646.813C674.613 685.813 657.52 724.067 628.16 750.667C630.6 740.867 630.04 729.72 623.947 721.32C617.853 711.773 607.867 705.453 597.307 701.893C610.653 689.307 620.893 673.333 625.787 655.587C632.293 632.96 630.48 608.213 621.467 586.52C610.773 562.307 590.573 542.64 566.413 531.987C550.693 524.987 533.107 522.627 516.027 524.133C487.92 526.733 461.013 541.413 444.227 564.2C419.707 595.4 415.707 641.107 434.853 675.947C440.32 686.147 448.347 694.64 456.52 702.733C456.293 703.4 455.867 704.707 455.64 705.373C445.973 705.36 436.373 703.92 426.773 702.933C409.987 700.973 394.147 692.24 384 678.653C377.333 670.173 369.627 659.12 357.347 660.333C347.093 659.533 341 669.627 331.64 671.52C337.147 661.907 340.893 651.213 341.067 640.053C342.547 618.72 331.187 597.173 312.947 586.133L314.627 586.493C316.653 574.32 321.693 562.96 326.427 551.64C339.12 524.107 360.093 500.893 384.653 483.387C386.08 482.28 387.533 480.947 387.653 479L387.733 478.733ZM712.52 532.6C702.92 536.947 694.92 544.267 688.64 552.653C677.293 566.88 670.147 583.773 662.387 600.067C659.627 604.707 665.147 609.627 669.627 607.147C676.307 602.653 679.44 594.787 683.347 588.053C685.427 588.2 687.48 587.747 689.213 586.547C698.173 581.027 707.48 575.773 715 568.307C721.667 561.88 726.693 554 731.693 546.28C732.493 544.507 734.213 543.827 736.013 543.507C740.6 545.093 744.08 548.613 748.213 551C752.653 552.893 757.187 548.36 756.4 543.92C754.627 538.867 749.827 535.733 745.373 533.227C735.347 527.653 722.867 528.227 712.52 532.6Z"></path>
<path fill="#F1B9B7" d="M442.24 471.64C451.347 470.293 460.573 471.48 469.693 470.227C472.573 470.053 475.44 470.4 478.293 470.84C471.013 473.107 463.373 471.84 455.907 472.187C451.347 472.333 446.773 472.173 442.24 471.64Z"></path>
<path fill="#F7CECA" d="M363.16 487.4C371.08 483.987 379.36 481.387 387.653 479C387.533 480.947 386.08 482.28 384.653 483.387C360.093 500.893 339.12 524.107 326.427 551.64C321.693 562.96 316.653 574.32 314.627 586.493C308.467 582.933 302.213 579.333 295.2 577.707C307.067 541.267 330.04 507.493 363.16 487.4Z"></path>
<path fill="#8DABAE" d="M651.973 498.427C649.92 492.933 649.92 487 651.893 481.48C653.293 487.053 653 492.827 651.973 498.427Z"></path>
<path fill="#E1BC77" d="M1012 490.907C1024.28 497.747 1036.44 504.92 1047.51 513.64C1062.09 524.933 1075.52 537.613 1088.24 550.947L1088.16 551.96C1088.2 552.493 1088.28 553.56 1088.32 554.08C1088.81 554.147 1089.81 554.28 1090.31 554.347L1091.55 554.307C1096.95 561.187 1102.91 567.613 1108.07 574.693C1109.91 578.96 1110.25 583.72 1111.47 588.187C1124.44 637.6 1124.41 689.493 1118.48 739.947C1110.19 804.373 1089.23 866.907 1059 924.293C1056.91 927.28 1057.52 932.427 1061.47 933.48C1066.48 935.947 1070.07 930.493 1072.11 926.707C1089.69 894.52 1103.47 860.28 1113.97 825.16C1131.37 764.4 1140 700.507 1133.61 637.4C1132.8 627.907 1130.68 618.6 1129.77 609.133C1152.13 651.227 1164.69 698.373 1167.93 745.853C1165.57 754.84 1167.08 764.147 1166.77 773.307C1166.95 781.573 1165.65 790.027 1168.07 798.107C1167.33 817.947 1164.03 837.653 1160.55 857.2C1157.41 872.24 1153.68 887.227 1148.41 901.68C1142.83 916.44 1136.61 931.467 1125.85 943.307C1119.03 950.76 1110.29 957 1100.15 958.707C1080.81 962.293 1061.49 956.88 1043.01 951.693C1029.01 947.907 1015.89 941.667 1002.72 935.733C990.187 929.867 977.653 923.44 963.907 920.947C954.933 918.853 945.693 918.947 936.533 918.88C944.653 894.613 949.333 869.347 953.533 844.147C976.947 836.68 1000.41 828.187 1020.89 814.32C1020.72 820.133 1018.65 825.813 1019.6 831.667C1014.76 855.827 1006.97 879.4 999.267 902.813C998.333 905.32 999.813 907.707 1000.71 909.987C1002.6 910.36 1004.51 911.28 1006.51 910.92C1010.53 908.76 1011.68 904.08 1013.2 900.147C1029.37 856.613 1039.43 811.04 1046.2 765.173C1055.47 703.96 1057.91 640.84 1044.32 580.067C1037.28 549.187 1027.11 518.8 1012 490.907ZM1041.41 525.227C1041.67 529.293 1043.19 533.08 1044.56 536.867C1049.65 552.453 1054.79 568.053 1058.8 583.96C1060.31 593.373 1063.08 602.56 1064.21 612.04C1068.05 631.373 1068.61 651.133 1069.93 670.747C1070.72 695.147 1070.13 719.573 1069.28 743.96C1069.4 749.96 1068.17 756.253 1070.39 762.027C1072.64 758.507 1074.75 754.84 1076.13 750.88C1083.99 727.6 1089.17 703.28 1089.81 678.653C1090.36 668.013 1090.76 657.333 1089.72 646.72C1088.21 630.533 1086.29 614.267 1081.56 598.667C1077.67 583 1070.52 568.413 1063.17 554.133C1056.92 543.84 1050.96 532.893 1041.41 525.227Z"></path>
<path fill="#FACECA" d="M658.96 548.293C672.427 528.587 693.093 512.453 717.307 509.387C731.64 507.64 747.747 510.467 758.413 520.867C754.44 520.627 750.507 520.133 746.573 519.64C730.36 518.027 713.933 523.093 700.76 532.507C689.92 539.227 680.293 547.653 671.56 556.907C664.533 563.68 658.84 571.813 651.12 577.84C648.8 579.947 645.547 579.573 642.68 579.813C643.16 578.667 643.64 577.533 644.147 576.413C648.72 566.853 652.84 557 658.96 548.293Z"></path>
<path fill="#CA7B79" d="M615.547 511.093C628.427 517.52 640.187 526.2 650.72 535.96C644.693 545.013 639.6 554.653 636.32 565.067C633.947 560.12 633.147 554.707 631.933 549.427C628.707 535.76 621.467 523.667 615.547 511.093Z"></path>
<path fill="#E1BC78" d="M773.173 515.787C773.947 515.52 775.493 515 776.28 514.733C785.92 520.12 792.16 529.733 796.24 539.733C800.16 549.053 800.4 559.467 799.12 569.347C797.56 581.587 790.8 592.387 783.147 601.773C776.427 610.2 768.133 617.4 758.627 622.533C747.867 628.293 737.08 634.467 725.027 637.04C716.213 659.173 709.44 682.747 710.973 706.813C712.24 728.507 721.013 749.12 733.027 766.987C745.853 786.627 763.173 802.987 782.267 816.453C792.147 824.08 803.613 829.16 814.707 834.733C820.587 837.653 826.907 839.533 833.133 841.56C859.693 850.6 888.2 852.347 916.013 850.32C923.933 849.813 931.64 847.64 939.587 847.347C935.52 871.907 929.92 896.213 923.173 920.173C902.453 924.267 882.84 933.76 866.48 947.08C861.4 945.133 855.96 944.613 850.653 943.693C824.267 939.933 798.96 930.387 775.467 918C754.213 905.867 733.56 891.773 717.8 872.813C702.36 855.707 690.547 835.627 681.36 814.587C673.76 795.947 666.96 776.8 663.547 756.92C665.893 752.76 669.373 749.347 671.933 745.307C685.787 724.667 695.36 700.92 698.147 676.133C700 659.373 699.973 642.2 696.293 625.693C706.2 625.547 716.293 625.187 725.773 622.067C745.613 615.76 763 602.013 773.533 584.04C782.333 569.827 786.24 552.307 782.507 535.853C780.867 528.573 777.307 521.933 773.173 515.787Z"></path>
<path fill="#020202" d="M444.227 564.2C461.013 541.413 487.92 526.733 516.027 524.133C533.107 522.627 550.693 524.987 566.413 531.987C590.573 542.64 610.773 562.307 621.467 586.52C630.48 608.213 632.293 632.96 625.787 655.587C620.893 673.333 610.653 689.307 597.307 701.893C582.413 716.227 563.187 726.267 542.707 729.427C512 733.693 479.12 724.24 456.52 702.733C448.347 694.64 440.32 686.147 434.853 675.947C415.707 641.107 419.707 595.4 444.227 564.2ZM495.24 544.907C473.2 552.987 454.84 570.467 445.787 592.147C437.227 611.853 436.693 634.733 443.693 655C454.36 687.933 486.76 713.213 521.493 714.04C523.147 714.453 524.827 714.72 526.533 714.84C549.413 715.28 571.907 705.373 588.107 689.413C601.24 677.12 609.347 660.187 612.947 642.733C617.627 618.973 611.067 593.6 596.32 574.52C585.867 561.013 571.773 549.613 555.173 544.88C536.093 537.707 514.347 537.707 495.24 544.907Z"></path>
<path fill="#020202" d="M712.52 532.6C722.867 528.227 735.347 527.653 745.373 533.227C749.827 535.733 754.627 538.867 756.4 543.92C757.187 548.36 752.653 552.893 748.213 551C744.08 548.613 740.6 545.093 736.013 543.507C725.293 541.533 714.147 545.587 706.52 553.187C696.453 563.04 690 575.813 683.347 588.053C679.44 594.787 676.307 602.653 669.627 607.147C665.147 609.627 659.627 604.707 662.387 600.067C670.147 583.773 677.293 566.88 688.64 552.653C694.92 544.267 702.92 536.947 712.52 532.6Z"></path>
<path fill="#F2D48C" d="M1041.41 525.227C1050.96 532.893 1056.92 543.84 1063.17 554.133C1070.52 568.413 1077.67 583 1081.56 598.667C1086.29 614.267 1088.21 630.533 1089.72 646.72C1090.76 657.333 1090.36 668.013 1089.81 678.653C1089.17 703.28 1083.99 727.6 1076.13 750.88C1074.75 754.84 1072.64 758.507 1070.39 762.027C1068.17 756.253 1069.4 749.96 1069.28 743.96C1070.13 719.573 1070.72 695.147 1069.93 670.747C1068.61 651.133 1068.05 631.373 1064.21 612.04C1063.08 602.56 1060.31 593.373 1058.8 583.96C1054.79 568.053 1049.65 552.453 1044.56 536.867C1043.19 533.08 1041.67 529.293 1041.41 525.227Z"></path>
<path fill="#FDFDFD" d="M495.24 544.907C514.347 537.707 536.093 537.707 555.173 544.88C559 549.693 564.627 552.333 569.547 555.8C590.827 571.32 605.72 596.067 606.987 622.64C607.32 639.867 603.2 657.56 593.213 671.813C586.827 680.8 579.44 689.453 569.88 695.173C560.973 700.573 551.667 705.547 541.547 708.227C534.907 710.32 527.747 710.747 521.493 714.04C486.76 713.213 454.36 687.933 443.693 655C436.693 634.733 437.227 611.853 445.787 592.147C454.84 570.467 473.2 552.987 495.24 544.907ZM508.747 570.373C480.587 575.72 458.653 602.2 457.827 630.72C456.613 649.2 464.747 667.733 478.293 680.187C493.427 694.8 516.52 699.507 536.613 694.307C552.667 690.64 567.373 680.867 576.347 666.987C587.147 650.627 589.4 629.173 582.533 610.853C577 595.213 565.013 582.04 549.92 575.147C537.28 568.8 522.507 567.64 508.747 570.373Z"></path>
<path fill="#FDFDFD" d="M275.413 586.373C285.36 584.24 296.04 585.987 304.787 591.2C318.227 598.453 328.293 611.733 331.267 626.747C334.36 639.027 331.6 652.12 325.92 663.227C316.467 680.28 296.92 691.253 277.373 689.96C255.973 688.493 238.987 669.907 234.973 649.56C232.107 635.147 235.427 619.707 243.653 607.56C251.08 596.813 262.827 589.467 275.413 586.373ZM277.853 606.147C263.44 610.44 253.2 624.973 253.547 639.96C252.493 661.067 273.96 680.04 294.787 675.693C311.507 672.773 324.627 656.947 324.667 640.027C324.347 626.667 316.293 613.387 303.893 607.973C295.827 604.173 286.387 603.747 277.853 606.147Z"></path>
<path fill="#CC7F7B" d="M706.52 553.187C714.147 545.587 725.293 541.533 736.013 543.507C734.213 543.827 732.493 544.507 731.693 546.28C726.693 554 721.667 561.88 715 568.307C707.48 575.773 698.173 581.027 689.213 586.547C687.48 587.747 685.427 588.2 683.347 588.053C690 575.813 696.453 563.04 706.52 553.187Z"></path>
<path fill="#D6D3D1" d="M555.173 544.88C571.773 549.613 585.867 561.013 596.32 574.52C611.067 593.6 617.627 618.973 612.947 642.733C609.347 660.187 601.24 677.12 588.107 689.413C571.907 705.373 549.413 715.28 526.533 714.84C524.827 714.72 523.147 714.453 521.493 714.04C527.747 710.747 534.907 710.32 541.547 708.227C551.667 705.547 560.973 700.573 569.88 695.173C579.44 689.453 586.827 680.8 593.213 671.813C603.2 657.56 607.32 639.867 606.987 622.64C605.72 596.067 590.827 571.32 569.547 555.8C564.627 552.333 559 549.693 555.173 544.88Z"></path>
<path fill="#D0C5B2" d="M1088.16 551.96C1090 551.613 1090.71 552.413 1090.31 554.347C1089.81 554.28 1088.81 554.147 1088.32 554.08C1088.28 553.56 1088.2 552.493 1088.16 551.96Z"></path>
<path fill="#FDFFFE" d="M535.387 588.987C548.933 583.787 564.667 596.467 563.307 610.627C562.733 619.76 555.8 628.027 546.72 629.707C533.8 632.813 520.24 621.107 520.867 607.987C520.933 599.347 527.28 591.56 535.387 588.987Z"></path>
<path fill="#FCFBF9" d="M298.907 616.227C306.44 612.8 316.547 621.093 313.24 629.187C311.24 636.347 301.667 639.333 295.933 634.64C289.747 629.867 291.6 618.907 298.907 616.227Z"></path>
<path fill="#CE807E" d="M679.187 646.813C680.067 640.333 680.227 633.72 682.107 627.413C686.453 641.4 686.227 656.387 684.813 670.827C682.867 692.2 675.68 713 664.373 731.213C643.853 764.64 609.947 788.187 573.413 801.24C573.667 800.693 574.16 799.6 574.413 799.04C570.733 799.44 567.013 799.547 563.32 799.227C581.293 790.373 599.467 781.173 614.64 767.907C619.827 763.427 624.173 758.027 627.173 751.853C627.413 751.56 627.907 750.96 628.16 750.667C657.52 724.067 674.613 685.813 679.187 646.813Z"></path>
<path fill="#F3F3F3" d="M281.827 643.187C283.947 638.667 291.107 640.613 291.573 645.213C292.787 649.253 288.733 651.773 285.373 652.467C284.6 652.067 283.053 651.267 282.28 650.867C281.213 648.427 279.667 645.533 281.827 643.187Z"></path>
<path fill="#F9C6C3" d="M331.64 671.52C341 669.627 347.093 659.533 357.347 660.333C369.627 659.12 377.333 670.173 384 678.653C394.147 692.24 409.987 700.973 426.773 702.933C436.373 703.92 445.973 705.36 455.64 705.373C455.867 704.707 456.293 703.4 456.52 702.733C479.12 724.24 512 733.693 542.707 729.427C563.187 726.267 582.413 716.227 597.307 701.893C607.867 705.453 617.853 711.773 623.947 721.32C630.04 729.72 630.6 740.867 628.16 750.667C627.907 750.96 627.413 751.56 627.173 751.853C617.933 757.213 610.107 764.573 601.32 770.587C584.88 782.733 564.053 790.16 543.493 787.347C530.427 785.813 520.173 775.213 506.8 775.187C497.44 775.667 492.147 784.2 486.293 790.28C476.84 799.667 468.227 810.307 456.32 816.733C458.587 817.44 460.853 818.16 463.16 818.8C435.627 820.72 407.72 818.507 380.467 823.667C378.6 821.2 376.747 818.707 374.92 816.213C377.427 814.92 379.933 813.64 382.44 812.36C381.493 811.347 380.56 810.347 379.627 809.36C395.573 798.853 410.52 786.867 424.533 773.907C426.453 772.213 427.787 770.013 429.04 767.813C428.933 771.24 427.093 777.027 431.96 777.933C435.72 778.96 438.213 775.533 439.693 772.64C443.933 764.613 443.907 753.52 437.053 746.92C431.587 741.893 424.653 738.427 417.347 737.093C413.733 736.573 409.413 736.16 406.547 738.907C404.2 741.787 406.227 746.64 409.84 747.227C416.427 748.08 422.733 750.64 428.093 754.547C414.187 767.427 399.6 779.627 384.12 790.587C377.56 789.08 371.52 792.68 365.427 794.48C333.987 804.733 302.64 817.107 269.333 819.493C266.293 819.613 263.333 820.4 260.827 822.173C258.573 815.507 254.027 809.6 247.733 806.333V806.08C247.6 803.573 247.667 800.933 249.747 799.2C260.12 788.2 267.827 775.107 275.453 762.147C285.667 744.48 292.12 724.947 297.307 705.307C298.107 702.36 298.213 699.293 298.253 696.267V696.093C311.893 692.44 323.813 683.453 331.387 671.587L331.64 671.52ZM441.787 723.373C439.28 723.947 436.667 725.293 435.907 727.96C434.16 732.347 437.627 736.467 440.773 739.147C447.907 745.387 457.067 749.573 466.613 749.933C471.613 750.067 477.8 746.987 477.693 741.267C477.227 734.733 471.92 730.013 466.827 726.613C459.12 722.933 450.2 720.773 441.787 723.373Z"></path>
<path fill="#FAD8D5" d="M286.973 698.133C290.8 698.027 294.56 697.227 298.253 696.267C298.213 699.293 298.107 702.36 297.307 705.307C292.12 724.947 285.667 744.48 275.453 762.147C267.827 775.107 260.12 788.2 249.747 799.2C247.667 800.933 247.6 803.573 247.733 806.08C241.507 802.973 235.107 799.973 228.08 799.307C234.853 796.707 240 791.427 245.053 786.427C261.813 768.907 272.24 746.453 280.147 723.8C282.96 715.4 285.533 706.893 286.973 698.133Z"></path>
<path fill="#F29D9E" d="M441.787 723.373C450.2 720.773 459.12 722.933 466.827 726.613C471.92 730.013 477.227 734.733 477.693 741.267C477.8 746.987 471.613 750.067 466.613 749.933C457.067 749.573 447.907 745.387 440.773 739.147C437.627 736.467 434.16 732.347 435.907 727.96C436.667 725.293 439.28 723.947 441.787 723.373Z"></path>
<path fill="#E7CD8E" d="M1166.77 773.307C1167.08 764.147 1165.57 754.84 1167.93 745.853C1169.27 763.213 1169.35 780.733 1168.07 798.107C1165.65 790.027 1166.95 781.573 1166.77 773.307Z"></path>
<path fill="#E6B0AE" d="M601.32 770.587C610.107 764.573 617.933 757.213 627.173 751.853C624.173 758.027 619.827 763.427 614.64 767.907C599.467 781.173 581.293 790.373 563.32 799.227C556.64 802.173 549.72 804.547 542.8 806.893C540.2 807.653 538.04 809.333 536.173 811.253C520.24 814.88 503.867 816.507 487.587 817.32C481.72 815.787 474.333 814.2 469.2 818.32L468.72 818.667C466.867 818.76 465 818.947 463.16 818.8C460.853 818.16 458.587 817.44 456.32 816.733C468.227 810.307 476.84 799.667 486.293 790.28C492.147 784.2 497.44 775.667 506.8 775.187C520.173 775.213 530.427 785.813 543.493 787.347C564.053 790.16 584.88 782.733 601.32 770.587Z"></path>
<path fill="#CC7D7D" d="M612.613 797.827C627.067 789.68 640.813 780.027 652.347 768.013C658.08 795.693 668.587 822.267 682.48 846.84C694.24 865.64 707.733 883.547 724.267 898.427C741.84 914.2 761.733 927.44 783.24 937.24L783.32 937.48C783.48 938 783.8 939.027 783.96 939.547C785.347 940.933 786.987 942.08 788.48 943.387C788.213 943.867 787.68 944.827 787.413 945.307C789.187 945.333 790.96 945.373 792.76 945.427C792.44 945.84 791.827 946.667 791.52 947.08C792.72 948.44 793.907 949.787 795.107 951.173C790.533 955.573 784.693 951.187 779.773 949.8C778.453 950.76 777.133 951.72 775.827 952.707C771.053 951.467 766.213 950.56 761.347 949.827C760.16 953.173 759.28 956.64 758.92 960.187C757.64 967.947 757.333 975.853 758.627 983.64C752.933 982.853 747.253 981.947 741.627 980.76C745.653 969.493 750.453 958.4 753.093 946.72C754.147 942.853 750.08 940.427 746.707 941.533C742.667 944.427 741.24 949.48 739.213 953.787C733.387 968.027 726.253 981.867 716.693 993.987C706.88 1007.65 691.12 1015.11 675.427 1019.85C675.52 1017.28 675.627 1014.75 675.72 1012.21C683.333 1006.37 691.16 1000.73 697.867 993.827C712.707 979.293 720.64 957.987 718.72 937.28C717.84 924.893 713.467 912.387 704.6 903.44C687.373 885.28 672.147 865.307 658.173 844.587C652.587 837.387 646.707 829.2 637.493 826.573C628.907 824.333 619.653 825.52 611.52 828.947C604.4 831.96 597.16 834.76 590.28 838.36C582.28 843.333 572.48 840.8 563.627 842.187C543.907 843.333 523.587 845.76 505.92 855.24C499.173 859 492.32 862.627 484.867 864.787C476.333 854.613 469.533 843.173 462.013 832.267C495.347 832.04 528.893 828.733 561.04 819.547C579.04 814.48 596.613 807.6 612.613 797.827Z"></path>
<path fill="#E5ABAB" d="M365.427 794.48C371.52 792.68 377.56 789.08 384.12 790.587C361.6 807.32 336.533 820.387 310.533 830.813C291.2 838.16 270.987 843.587 250.307 845.173C253.933 842.08 257.893 839.04 259.96 834.627C261.813 830.747 261.173 826.293 260.827 822.173C263.333 820.4 266.293 819.613 269.333 819.493C302.64 817.107 333.987 804.733 365.427 794.48Z"></path>
<path fill="#CA8F8E" d="M542.8 806.893C549.72 804.547 556.64 802.173 563.32 799.227C567.013 799.547 570.733 799.44 574.413 799.04C574.16 799.6 573.667 800.693 573.413 801.24C561.253 805.387 548.893 809.24 536.173 811.253C538.04 809.333 540.2 807.653 542.8 806.893Z"></path>
<path fill="#FFD2CE" d="M198.72 819.493C201.44 810.613 211.307 804.72 220.467 806.613C217.16 812.267 210.107 812.227 205.293 815.893C203.053 817.467 200.933 819.227 198.787 820.92C198.76 820.56 198.733 819.853 198.72 819.493Z"></path>
<path fill="#F3A4A3" d="M220.467 806.613C230.107 807.267 239.467 810.76 246.973 816.893C243.68 822.64 241.52 829.36 236.16 833.64C231.187 837.707 226.267 842.04 220.453 844.867C219.773 844.773 218.413 844.56 217.733 844.453C226.533 839.093 224.133 822.827 213.387 821.733C205.653 820.88 200.227 829.64 203.107 836.507C201.507 836.747 199.907 836.987 198.307 837.253C196.4 831.147 196.053 824.48 198.68 818.507L198.72 819.493C198.733 819.853 198.76 820.56 198.787 820.92C200.933 819.227 203.053 817.467 205.293 815.893C210.107 812.227 217.16 812.267 220.467 806.613Z"></path>
<path fill="#EBB9B8" d="M321.427 839.6C341.707 831.373 361.24 821.227 379.627 809.36C380.56 810.347 381.493 811.347 382.44 812.36C379.933 813.64 377.427 814.92 374.92 816.213C376.747 818.707 378.6 821.2 380.467 823.667C367.827 826.52 355.84 831.6 343.333 834.947C336.147 837.04 328.68 837.813 321.427 839.6Z"></path>
<path fill="#E9C7C8" d="M469.2 818.32C474.333 814.2 481.72 815.787 487.587 817.32C481.48 817.987 475.333 818.227 469.2 818.32Z"></path>
<path fill="#DF8E8F" d="M246.973 816.893C250.307 820.707 253.52 825.493 252.653 830.84C251.12 834.56 247.133 836.467 245.187 839.92C243.347 843.347 242.333 847.32 239.493 850.133C234.533 856.067 225.853 857.467 218.627 855.827C209.04 854.067 201.653 846.107 198.307 837.253C199.907 836.987 201.507 836.747 203.107 836.507C205.627 842.307 211.733 844.64 217.733 844.453C218.413 844.56 219.773 844.773 220.453 844.867C226.267 842.04 231.187 837.707 236.16 833.64C241.52 829.36 243.68 822.64 246.973 816.893Z"></path>
<path fill="#040202" d="M203.107 836.507C200.227 829.64 205.653 820.88 213.387 821.733C224.133 822.827 226.533 839.093 217.733 844.453C211.733 844.64 205.627 842.307 203.107 836.507Z"></path>
<path fill="#EEA2A2" d="M611.52 828.947C619.653 825.52 628.907 824.333 637.493 826.573C646.707 829.2 652.587 837.387 658.173 844.587C672.147 865.307 687.373 885.28 704.6 903.44C713.467 912.387 717.84 924.893 718.72 937.28C720.64 957.987 712.707 979.293 697.867 993.827C691.16 1000.73 683.333 1006.37 675.72 1012.21C675.707 1003.19 672.813 993.6 665.747 987.587C658.467 981.213 646.893 981.253 639.28 987.053C635.72 983.027 630.987 979.707 625.507 979.227C619.093 978.613 613.067 981.493 607.773 984.787C605.653 981.56 602.92 978.827 600.373 975.973C598.667 972.04 600.547 968.013 601.573 964.2C607.56 940.76 615.16 917.56 617.667 893.373C618.227 885.813 618.6 877.92 615.853 870.72C613.307 864.08 609.427 857.88 604.133 853.107C598.093 848.187 591.387 842.987 583.293 842.587C576.733 842.72 570.173 842.8 563.627 842.187C572.48 840.8 582.28 843.333 590.28 838.36C597.16 834.76 604.4 831.96 611.52 828.947Z"></path>
<path fill="#E6ADAC" d="M505.92 855.24C523.587 845.76 543.907 843.333 563.627 842.187C570.173 842.8 576.733 842.72 583.293 842.587C578.973 847.813 573.627 852.053 569.387 857.347C562.027 866.373 553.773 874.667 545.067 882.387C534.347 892.147 517.547 892.587 505.093 885.96C505.093 886.24 505.107 886.8 505.12 887.08V887.507C498.24 880.053 491.267 872.667 484.867 864.787C492.32 862.627 499.173 859 505.92 855.24Z"></path>
<path fill="#F8C5C2" d="M583.293 842.587C591.387 842.987 598.093 848.187 604.133 853.107C603.107 854.173 602.107 855.267 601.133 856.373C600.693 856.933 599.8 858.053 599.36 858.6C595.227 886.52 587.333 913.68 579.92 940.853C557.68 930.88 537.627 916.56 519.347 900.547C514.507 896.16 509.173 892.227 505.12 887.08C505.107 886.8 505.093 886.24 505.093 885.96C517.547 892.587 534.347 892.147 545.067 882.387C553.773 874.667 562.027 866.373 569.387 857.347C573.627 852.053 578.973 847.813 583.293 842.587Z"></path>
<path fill="#F9CFCC" d="M601.133 856.373C602.107 855.267 603.107 854.173 604.133 853.107C609.427 857.88 613.307 864.08 615.853 870.72C618.6 877.92 618.227 885.813 617.667 893.373C615.16 917.56 607.56 940.76 601.573 964.2C600.547 968.013 598.667 972.04 600.373 975.973C595.627 972.92 589.64 971.987 584.4 974.373C587.933 962.6 591.72 950.853 594.12 938.773C598.813 918.067 603.48 897.213 604.707 875.96C605.293 869.24 604.027 862.453 601.133 856.373Z"></path>
<path fill="#FAD2D0" d="M457.48 853.547C461.573 859.04 465.693 864.52 469.893 869.947C468.747 871.893 467.52 873.867 467.08 876.133C462.067 901.973 456.76 927.867 448.107 952.787C443.147 951.173 437.68 950.267 432.733 952.48C436.893 923.533 444.827 895.32 452.893 867.267C454.293 862.64 456 858.133 457.48 853.547Z"></path>
<path fill="#FAD2D0" d="M842.853 996.413C843.707 996.853 845.427 997.747 846.28 998.2C845.613 1005.32 845.453 1012.49 846.24 1019.63C843.04 1017.92 838.28 1017.44 836.933 1013.52C836.213 1009.77 837.12 1006.04 838.173 1002.47C837.933 1005.27 837.773 1008.11 838.093 1010.92C838.187 1014.16 841.44 1015.8 843.4 1017.89C845.52 1010.97 845.653 1003.16 842.853 996.413Z"></path>
<path fill="#E6AEAD" d="M467.08 876.133C467.52 873.867 468.747 871.893 469.893 869.947C485.613 889.147 502.52 907.493 521.733 923.267C507.907 939.64 493.053 955.093 478.867 971.147C473.08 966.6 465.827 964.067 458.427 964.987C456.48 959.893 452.787 955.667 448.04 952.987L448.107 952.787C456.76 927.867 462.067 901.973 467.08 876.133Z"></path>
<path fill="#CF7F7E" d="M478.867 971.147C493.053 955.093 507.907 939.64 521.733 923.267C529.933 929.24 538.227 935.133 546.32 941.213C540.867 953.64 537.013 967.093 528.56 977.96C524.28 983.613 517.547 986.88 510.653 987.987C502.133 989.32 493.52 987.947 485.027 987.187C484.76 981.307 482.627 975.667 478.867 971.147Z"></path>
<path fill="#F9CDCA" d="M892.627 945.68C911.773 934.4 934.867 929.92 956.813 933.453C947.027 933.987 937.04 934.6 927.893 938.427C917.333 942.88 906.987 948.107 897.853 955.08C891.533 959.907 884.88 964.467 879.84 970.707C880.813 971.787 881.787 972.88 882.773 973.973C871.747 973.48 862.707 981.187 855.92 989.013C854.88 986.853 853 985.4 851.053 984.16C862.533 969.067 875.773 954.813 892.627 945.68Z"></path>
<path fill="#EFA1A1" d="M956.813 933.453C970.8 935.107 983.707 941.307 996.373 947.12C990.413 960.853 983.693 975.32 971.2 984.32C961.333 990.56 949.213 990.947 938.52 995.133C934.027 991.027 928.813 987.267 922.627 986.453C915.933 985.253 909.4 988.093 903.88 991.64C899.893 982.947 892.693 975.227 882.773 973.973C881.787 972.88 880.813 971.787 879.84 970.707C884.88 964.467 891.533 959.907 897.853 955.08C906.987 948.107 917.333 942.88 927.893 938.427C937.04 934.6 947.027 933.987 956.813 933.453Z"></path>
<path fill="#D18284" d="M783.96 939.547C783.8 939.027 783.48 938 783.32 937.48C806.28 947.653 830.48 955.307 855.507 958.133C849.92 963.8 844.733 969.84 839.253 975.613C818.6 970.973 797.707 966.44 778.333 957.64C773.507 955.613 768.453 952.827 763.053 953.88C761.173 955.6 760.067 957.96 758.92 960.187C759.28 956.64 760.16 953.173 761.347 949.827C766.213 950.56 771.053 951.467 775.827 952.707C777.133 951.72 778.453 950.76 779.773 949.8C784.693 951.187 790.533 955.573 795.107 951.173C793.907 949.787 792.72 948.44 791.52 947.08C791.827 946.667 792.44 945.84 792.76 945.427C790.96 945.373 789.187 945.333 787.413 945.307C787.68 944.827 788.213 943.867 788.48 943.387C786.987 942.08 785.347 940.933 783.96 939.547Z"></path>
<path fill="#CD7E7F" d="M996.373 947.12C1023.52 960.173 1052.32 970.787 1082.47 973.893C1059 994.133 1029.25 1005.29 999.547 1012.75C984.173 1016.71 968.4 1018.68 952.693 1020.68C950.12 1011.15 945.4 1002.24 938.52 995.133C949.213 990.947 961.333 990.56 971.2 984.32C983.693 975.32 990.413 960.853 996.373 947.12Z"></path>
<path fill="#DEB0B3" d="M763.053 953.88C768.453 952.827 773.507 955.613 778.333 957.64C797.707 966.44 818.6 970.973 839.253 975.613C835.76 979.96 832.293 984.333 828.987 988.84C805.493 987.893 781.853 987.64 758.627 983.64C757.333 975.853 757.64 967.947 758.92 960.187C760.067 957.96 761.173 955.6 763.053 953.88Z"></path>
<path fill="#F8CDC5" d="M432.533 966.907C435.493 964.12 439.52 963.52 443.307 964.893C442.573 965.453 441.093 966.587 440.36 967.147C440.6 974.413 439 981.52 436.613 988.333C435.68 988.32 433.827 988.293 432.893 988.267C432.12 981.173 431.44 974 432.533 966.907Z"></path>
<path fill="#E8ABAE" d="M443.307 964.893C447.987 971.547 446.747 980.307 444.387 987.6C441.787 987.853 439.2 988.12 436.613 988.333C439 981.52 440.6 974.413 440.36 967.147C441.093 966.587 442.573 965.453 443.307 964.893Z"></path>
<path fill="#E8979A" d="M457.227 987.267C458.373 984.293 459.347 981.267 460.027 978.173C465.667 977.24 471.84 980.84 471.613 987.027C466.813 987.133 462.013 987.147 457.227 987.267Z"></path>
<path fill="#E4A8A7" d="M581.973 989.667C585.56 986.52 592.267 985.507 595.16 990.133C598.12 992.947 595.707 996.92 595.227 1000.24C593.867 1005.27 594.773 1010.49 595.507 1015.55C590.267 1013.07 584.72 1009.77 582.867 1003.91C581.52 999.373 580.28 994.24 581.973 989.667Z"></path>
<path fill="#FACDCB" d="M871.4 991.253C876.227 987.053 883.907 986.427 888.613 991.16C881.227 999.4 880.253 1010.92 879.627 1021.45C877.453 1021.75 875.293 1022.05 873.147 1022.31C868.413 1022.29 863.707 1021.76 859 1021.59C856.28 1009.96 862.96 998.707 871.4 991.253Z"></path>
<path fill="#EAB2AE" d="M888.613 991.16C890.773 995.307 894.493 999.8 892.627 1004.76C890.573 1010.52 889.853 1016.64 890.173 1022.75C884.493 1022.83 878.8 1022.91 873.147 1022.31C875.293 1022.05 877.453 1021.75 879.627 1021.45C880.253 1010.92 881.227 999.4 888.613 991.16Z"></path>
<path fill="#F4C8C5" d="M609.72 1001.84C613.293 996.293 620.773 991.253 627.373 994.4C619.987 1001.05 619.36 1011.81 621.227 1020.96C616.947 1020.45 612.693 1019.73 608.48 1018.84C608 1013.19 606.24 1006.91 609.72 1001.84Z"></path>
<path fill="#EAA5A6" d="M621.227 1020.96C619.36 1011.81 619.987 1001.05 627.373 994.4C627.653 995.893 628.24 998.867 628.52 1000.35C624.933 996.267 625.587 1000.4 627.787 1000.83C626.2 1007.69 625.8 1014.76 625.947 1021.8C624.36 1021.51 622.8 1021.23 621.227 1020.96Z"></path>
<path fill="#F6BBB5" d="M641.293 1003.72C644.147 997.947 652.44 994.573 657.693 999.28C655.453 1004.97 655.133 1011.11 655.28 1017.16C655.547 1019.39 654.453 1021.36 653.253 1023.12C648.653 1023.15 644.053 1023.23 639.467 1023.05C639.267 1016.61 638.24 1009.67 641.293 1003.72Z"></path>
<path fill="#E7A1A0" d="M838.173 1002.47C839.48 1000.27 841.16 998.32 842.853 996.413C845.653 1003.16 845.52 1010.97 843.4 1017.89C841.44 1015.8 838.187 1014.16 838.093 1010.92C837.773 1008.11 837.933 1005.27 838.173 1002.47Z"></path>
<path fill="#E8A3A7" d="M657.693 999.28C662.267 1005.96 662.8 1014.41 660.733 1022.08C658.24 1022.4 655.733 1022.75 653.253 1023.12C654.453 1021.36 655.547 1019.39 655.28 1017.16C655.133 1011.11 655.453 1004.97 657.693 999.28Z"></path>
<path fill="#EB9A97" d="M908.293 1005.72C911.853 1001.11 918.6 998.027 924.08 1001.25C931.4 1005.69 935.773 1013.73 938.427 1021.65C926.787 1022.03 915.133 1022.59 903.493 1022.19C903.813 1016.47 904.333 1010.21 908.293 1005.72Z"></path>
</g>
<defs>
<clipPath id="clip0_725_37980">
<rect fill="white" height="1365.33" width="1365.33"></rect>
</clipPath>
</defs>
</svg>
